<svg xmlns="http://www.w3.org/2000/svg" width="892" height="190"><defs id="SvgjsDefs1194"></defs><g id="SvgjsG1195" featurekey="root" fill="#3a3b45"></g><g id="SvgjsG1196" featurekey="container1" fill="#cd9348" transform="matrix(0.7340347223871182,0,0,0.7340347223871182,20,20)"><defs xmlns="http://www.w3.org/2000/svg"></defs><g xmlns="http://www.w3.org/2000/svg">  <path d="M102.174,199.588c53.8,0,97.413-43.613,97.413-97.413S155.974,4.762,102.174,4.762S4.761,48.375,4.761,102.175    S48.375,199.588,102.174,199.588z M102.174,9.762c50.957,0,92.413,41.457,92.413,92.413s-41.456,92.413-92.413,92.413    c-50.957,0-92.413-41.457-92.413-92.413S51.218,9.762,102.174,9.762z"></path>  <path d="M102.174,191.585c49.38,0,89.41-40.03,89.41-89.41s-40.03-89.41-89.41-89.41c-49.38,0-89.41,40.03-89.41,89.41    S52.794,191.585,102.174,191.585z M102.174,14.765c48.198,0,87.41,39.212,87.41,87.41s-39.212,87.41-87.41,87.41    c-48.198,0-87.41-39.212-87.41-87.41S53.976,14.765,102.174,14.765z"></path>  <path d="M102.174,204.35c56.339,0,102.174-45.835,102.174-102.175S158.513,0,102.174,0C45.835,0,0,45.835,0,102.175    S45.835,204.35,102.174,204.35z M102.174,2c55.236,0,100.174,44.938,100.174,100.175S157.411,202.35,102.174,202.35    C46.938,202.35,2,157.411,2,102.175S46.938,2,102.174,2z"></path></g></g><g id="SvgjsG1197" featurekey="text4" fill="#cd9348" transform="matrix(5.398109382943262,0,0,5.398109382943262,59.79757173469585,27.037802045058207)"><path d="M0.7 11.66 q0.06 0.04 0.14 0.05 t0.2 0.05 q-0.04 -0.1 -0.07 -0.18 t-0.07 -0.1 q-0.22 -0.12 -0.3 -0.28 t-0.11 -0.35 t-0.03 -0.39 t-0.02 -0.42 q-0.04 -0.4 -0.03 -0.77 t0.21 -0.71 q0.08 -0.14 0.14 -0.32 t0.14 -0.35 t0.19 -0.3 t0.31 -0.19 q0.1 -0.04 0.19 -0.17 t0.25 -0.21 l-0.12 0.42 q-0.04 0.1 -0.04 0.18 t-0.02 0.18 q0.08 -0.04 0.17 -0.08 t0.13 -0.12 q0.16 -0.22 0.31 -0.48 t0.31 -0.54 q-0.18 0.1 -0.32 0.18 l-0.28 0.16 q0.18 -0.3 0.37 -0.59 t0.42 -0.49 t0.51 -0.25 t0.66 0.11 q0.16 -0.22 0.27 -0.34 t0.24 -0.16 t0.3 0 t0.45 0.14 q0.42 0.16 0.85 0.27 t0.83 0.33 q0.34 0.18 0.61 0.49 t0.57 0.59 q0.18 0.18 0.26 0.36 q0.04 0.14 0.08 0.29 t0 0.25 q-0.1 0.2 -0.25 0.25 t-0.29 -0.27 q-0.1 -0.16 -0.3 -0.18 q0.1 0.18 0.18 0.37 t0.18 0.37 q-0.06 0.06 -0.08 0.1 q-0.1 -0.1 -0.21 -0.22 t-0.21 -0.22 q-0.1 0.16 -0.16 0.16 t-0.11 -0.07 t-0.1 -0.16 t-0.11 -0.13 q-0.08 0.1 -0.15 0.21 t-0.15 0.11 q-0.1 -0.02 -0.18 -0.13 t-0.14 -0.21 q-0.18 -0.24 -0.43 -0.39 t-0.5 -0.17 t-0.48 0.09 t-0.35 0.39 q-0.22 0.46 -0.44 0.89 t-0.42 0.89 q-0.04 0.12 -0.07 0.3 t0.01 0.36 t0.16 0.35 t0.38 0.25 q1.26 0.1 2.38 0.46 t2.22 0.8 q0.28 0.1 0.54 0.3 t0.52 0.42 q0.38 0.32 0.75 0.67 t0.75 0.71 q0.4 0.36 -0.04 0.84 l0.48 0.36 l0 0.25 t-0.02 0.31 q0.08 -0.06 0.11 -0.09 l0.05 -0.05 q0.04 0.2 0.09 0.4 t0.09 0.4 q0.02 0 0.04 -0.01 t0.04 -0.01 q0.04 -0.1 0.06 -0.21 t0.04 -0.21 q0.04 0 0.06 0.01 t0.06 0.01 q0 0.34 0.06 0.67 t-0.14 0.61 q-0.04 -0.02 -0.08 -0.02 t-0.08 -0.02 q0.04 -0.14 0.1 -0.28 t0.1 -0.28 q-0.02 0 -0.03 -0.01 t-0.03 -0.01 q-0.28 0.48 -0.56 0.95 t-0.58 0.99 q0.28 -0.2 0.62 -0.4 q-0.04 0.14 -0.07 0.31 t-0.09 0.41 q-0.14 0.1 -0.37 0.27 t-0.51 0.37 q-1.38 0.04 -2.8 0.1 t-2.86 0.12 q0 -0.04 -0.01 -0.06 t-0.01 -0.06 q0.04 -0.04 0.1 -0.07 t0.1 -0.07 l0 -0.04 q-0.08 0 -0.17 -0.02 t-0.13 0.02 q-0.1 0.18 -0.17 0.21 t-0.11 -0.03 t-0.08 -0.17 t-0.08 -0.23 q-0.04 0.1 -0.05 0.18 t-0.05 0.18 q-0.16 -0.12 -0.34 -0.16 l-0.36 -0.08 t-0.34 -0.15 t-0.24 -0.39 l-0.28 -0.2 t-0.36 -0.26 q0.08 0.26 0.14 0.38 l-0.06 0.06 q-0.2 -0.18 -0.39 -0.37 t-0.43 -0.41 l0.5 0 q-0.12 -0.08 -0.2 -0.16 t-0.14 -0.06 q-0.1 0.04 -0.19 0.12 t-0.25 0.18 q-0.18 -0.44 -0.38 -0.92 t-0.14 -1.12 q0.12 0.22 0.24 0.42 t0.28 0.48 q0.02 -0.24 0.03 -0.41 t0.05 -0.39 l0.14 0.28 t0.1 0.24 q0.12 -0.12 0.25 -0.24 t0.27 -0.26 q0.04 0.1 0.09 0.2 t0.11 0.26 q0.06 -0.28 0.11 -0.49 t0.09 -0.45 q0.12 0.24 0.22 0.47 t0.24 0.51 q0.04 -0.22 0.04 -0.33 t0.02 -0.21 l0.08 0 l0 0.8 q0.02 0 0.04 0.01 t0.04 0.01 q0.08 -0.26 0.14 -0.52 l0.12 -0.52 q0.06 0.18 0.11 0.36 t0.09 0.34 q0.04 0 0.12 -0.04 q0.08 -0.18 0.15 -0.36 t0.15 -0.38 q0.06 0 0.08 0.02 q0.02 0.16 0.03 0.35 t0.03 0.47 q0.1 -0.2 0.16 -0.33 t0.1 -0.23 q0.08 0 0.12 0.02 q-0.02 0.16 -0.02 0.32 t-0.02 0.32 q-0.08 0.5 0.16 0.93 t0.64 0.47 q0.34 0.04 0.69 0.03 t0.69 -0.03 q0.16 0 0.31 -0.03 t0.31 -0.03 q0.66 0.02 1.02 -0.43 t0.58 -1.09 q0.08 -0.26 -0.04 -0.48 q-0.46 -0.98 -1.18 -1.62 t-1.48 -1.22 q-0.28 -0.22 -0.59 -0.33 t-0.71 -0.05 q-0.42 0.06 -0.85 0.01 t-0.85 -0.13 q-0.24 -0.04 -0.47 -0.19 t-0.47 -0.19 q-0.46 -0.1 -0.86 -0.33 t-0.84 -0.43 q-0.04 -0.02 -0.09 -0.05 t-0.09 -0.07 q0.02 -0.04 0.03 -0.05 t0.03 -0.05 z M0.48 9.64 q0.12 0.1 0.24 0.19 t0.22 0.17 l0 -1.78 q-0.12 0.4 -0.23 0.74 t-0.23 0.68 z"></path></g><g id="SvgjsG1198" featurekey="text1" fill="#333" transform="matrix(3.5799534406486626,0,0,3.5799534406486626,188.53937923691007,48.17421951177322)"><path d="M0.7 11.66 q0.06 0.04 0.14 0.05 t0.2 0.05 q-0.04 -0.1 -0.07 -0.18 t-0.07 -0.1 q-0.22 -0.12 -0.3 -0.28 t-0.11 -0.35 t-0.03 -0.39 t-0.02 -0.42 q-0.04 -0.4 -0.03 -0.77 t0.21 -0.71 q0.08 -0.14 0.14 -0.32 t0.14 -0.35 t0.19 -0.3 t0.31 -0.19 q0.1 -0.04 0.19 -0.17 t0.25 -0.21 l-0.12 0.42 q-0.04 0.1 -0.04 0.18 t-0.02 0.18 q0.08 -0.04 0.17 -0.08 t0.13 -0.12 q0.16 -0.22 0.31 -0.48 t0.31 -0.54 q-0.18 0.1 -0.32 0.18 l-0.28 0.16 q0.18 -0.3 0.37 -0.59 t0.42 -0.49 t0.51 -0.25 t0.66 0.11 q0.16 -0.22 0.27 -0.34 t0.24 -0.16 t0.3 0 t0.45 0.14 q0.42 0.16 0.85 0.27 t0.83 0.33 q0.34 0.18 0.61 0.49 t0.57 0.59 q0.18 0.18 0.26 0.36 q0.04 0.14 0.08 0.29 t0 0.25 q-0.1 0.2 -0.25 0.25 t-0.29 -0.27 q-0.1 -0.16 -0.3 -0.18 q0.1 0.18 0.18 0.37 t0.18 0.37 q-0.06 0.06 -0.08 0.1 q-0.1 -0.1 -0.21 -0.22 t-0.21 -0.22 q-0.1 0.16 -0.16 0.16 t-0.11 -0.07 t-0.1 -0.16 t-0.11 -0.13 q-0.08 0.1 -0.15 0.21 t-0.15 0.11 q-0.1 -0.02 -0.18 -0.13 t-0.14 -0.21 q-0.18 -0.24 -0.43 -0.39 t-0.5 -0.17 t-0.48 0.09 t-0.35 0.39 q-0.22 0.46 -0.44 0.89 t-0.42 0.89 q-0.04 0.12 -0.07 0.3 t0.01 0.36 t0.16 0.35 t0.38 0.25 q1.26 0.1 2.38 0.46 t2.22 0.8 q0.28 0.1 0.54 0.3 t0.52 0.42 q0.38 0.32 0.75 0.67 t0.75 0.71 q0.4 0.36 -0.04 0.84 l0.48 0.36 l0 0.25 t-0.02 0.31 q0.08 -0.06 0.11 -0.09 l0.05 -0.05 q0.04 0.2 0.09 0.4 t0.09 0.4 q0.02 0 0.04 -0.01 t0.04 -0.01 q0.04 -0.1 0.06 -0.21 t0.04 -0.21 q0.04 0 0.06 0.01 t0.06 0.01 q0 0.34 0.06 0.67 t-0.14 0.61 q-0.04 -0.02 -0.08 -0.02 t-0.08 -0.02 q0.04 -0.14 0.1 -0.28 t0.1 -0.28 q-0.02 0 -0.03 -0.01 t-0.03 -0.01 q-0.28 0.48 -0.56 0.95 t-0.58 0.99 q0.28 -0.2 0.62 -0.4 q-0.04 0.14 -0.07 0.31 t-0.09 0.41 q-0.14 0.1 -0.37 0.27 t-0.51 0.37 q-1.38 0.04 -2.8 0.1 t-2.86 0.12 q0 -0.04 -0.01 -0.06 t-0.01 -0.06 q0.04 -0.04 0.1 -0.07 t0.1 -0.07 l0 -0.04 q-0.08 0 -0.17 -0.02 t-0.13 0.02 q-0.1 0.18 -0.17 0.21 t-0.11 -0.03 t-0.08 -0.17 t-0.08 -0.23 q-0.04 0.1 -0.05 0.18 t-0.05 0.18 q-0.16 -0.12 -0.34 -0.16 l-0.36 -0.08 t-0.34 -0.15 t-0.24 -0.39 l-0.28 -0.2 t-0.36 -0.26 q0.08 0.26 0.14 0.38 l-0.06 0.06 q-0.2 -0.18 -0.39 -0.37 t-0.43 -0.41 l0.5 0 q-0.12 -0.08 -0.2 -0.16 t-0.14 -0.06 q-0.1 0.04 -0.19 0.12 t-0.25 0.18 q-0.18 -0.44 -0.38 -0.92 t-0.14 -1.12 q0.12 0.22 0.24 0.42 t0.28 0.48 q0.02 -0.24 0.03 -0.41 t0.05 -0.39 l0.14 0.28 t0.1 0.24 q0.12 -0.12 0.25 -0.24 t0.27 -0.26 q0.04 0.1 0.09 0.2 t0.11 0.26 q0.06 -0.28 0.11 -0.49 t0.09 -0.45 q0.12 0.24 0.22 0.47 t0.24 0.51 q0.04 -0.22 0.04 -0.33 t0.02 -0.21 l0.08 0 l0 0.8 q0.02 0 0.04 0.01 t0.04 0.01 q0.08 -0.26 0.14 -0.52 l0.12 -0.52 q0.06 0.18 0.11 0.36 t0.09 0.34 q0.04 0 0.12 -0.04 q0.08 -0.18 0.15 -0.36 t0.15 -0.38 q0.06 0 0.08 0.02 q0.02 0.16 0.03 0.35 t0.03 0.47 q0.1 -0.2 0.16 -0.33 t0.1 -0.23 q0.08 0 0.12 0.02 q-0.02 0.16 -0.02 0.32 t-0.02 0.32 q-0.08 0.5 0.16 0.93 t0.64 0.47 q0.34 0.04 0.69 0.03 t0.69 -0.03 q0.16 0 0.31 -0.03 t0.31 -0.03 q0.66 0.02 1.02 -0.43 t0.58 -1.09 q0.08 -0.26 -0.04 -0.48 q-0.46 -0.98 -1.18 -1.62 t-1.48 -1.22 q-0.28 -0.22 -0.59 -0.33 t-0.71 -0.05 q-0.42 0.06 -0.85 0.01 t-0.85 -0.13 q-0.24 -0.04 -0.47 -0.19 t-0.47 -0.19 q-0.46 -0.1 -0.86 -0.33 t-0.84 -0.43 q-0.04 -0.02 -0.09 -0.05 t-0.09 -0.07 q0.02 -0.04 0.03 -0.05 t0.03 -0.05 z M0.48 9.64 q0.12 0.1 0.24 0.19 t0.22 0.17 l0 -1.78 q-0.12 0.4 -0.23 0.74 t-0.23 0.68 z M20.72 8.52 q0.12 0.16 0.16 0.24 q0.02 -0.2 0.03 -0.4 t0.05 -0.46 l0.28 0.42 q-0.02 -0.54 -0.01 -1.09 t-0.09 -1.09 q0.04 0.04 0.07 0.09 t0.07 0.13 q0.04 -0.16 0.09 -0.32 t0.09 -0.34 q0.04 0.1 0.07 0.15 t0.07 0.15 q0.02 -0.26 0.06 -0.38 q0.06 -0.08 0.16 -0.07 t0.19 0.02 t0.17 -0.02 t0.1 -0.21 q0 -0.02 0.1 -0.02 l0.68 -0.08 t0.58 -0.08 q0.28 0.12 0.48 0.22 t0.44 0.2 l0 3.6 l-0.06 0 q-0.02 -0.1 -0.02 -0.22 t-0.02 -0.22 l-0.08 0 q-0.04 1.22 -0.09 2.44 t-0.09 2.44 l-0.1 0 q-0.08 -0.14 -0.1 -0.28 q-0.12 0.06 -0.15 0.15 t-0.01 0.16 t0.07 0.13 t0.07 0.06 q0.14 0.04 0.19 0.09 t0.04 0.11 t-0.05 0.12 t-0.06 0.12 q-0.06 -0.1 -0.12 -0.17 t-0.12 -0.17 q-0.04 0.02 -0.06 0.02 t-0.06 0.02 q-0.04 1.2 -0.08 2.36 t-0.08 2.36 q0 0.1 0.1 0.21 t0.2 0.25 q-0.16 0.04 -0.36 0.1 t-0.4 0.1 q0 0.04 0.01 0.05 t0.01 0.05 l0.24 0.06 q-0.18 0.32 -0.38 0.38 t-0.4 -0.1 q-0.16 0.06 -0.27 0.1 t-0.21 0.06 q-0.4 0.06 -0.8 0.1 t-0.82 0.08 q-0.04 -0.16 -0.08 -0.36 t-0.04 -0.42 q-0.02 -1.14 -0.02 -2.28 t0.04 -2.28 q0.02 -0.54 -0.17 -0.71 t-0.87 -0.17 q-0.46 0 -0.94 -0.03 t-0.96 -0.07 l-0.92 0 q-0.06 0.34 -0.11 0.64 t-0.11 0.64 q-0.02 -0.02 0.03 0.02 t0.05 0.08 q0.02 0.18 -0.01 0.37 t-0.07 0.37 q0.02 0.06 0.1 0.1 t0.14 0.08 t0.07 0.1 t-0.11 0.16 q0 0.18 -0.02 0.33 t0.02 0.25 q0.1 0.2 0.11 0.41 t0.01 0.43 t0.04 0.43 t0.22 0.39 q0.08 0.08 0.06 0.22 t-0.11 0.27 t-0.22 0.24 t-0.27 0.15 q-0.42 0.12 -0.84 0.26 t-0.84 0.24 q-0.12 0.04 -0.26 -0.01 t-0.36 -0.09 q-0.06 -1.24 -0.13 -2.46 t-0.13 -2.46 l-0.12 -3 q-0.04 -0.76 -0.07 -1.52 t-0.07 -1.52 q-0.04 -0.72 -0.12 -1.44 t-0.12 -1.44 q-0.02 -0.22 0.05 -0.42 t0.11 -0.36 q0.28 -0.04 0.53 -0.06 t0.47 -0.04 l0 -0.14 q0.04 0.04 0.07 0.06 t0.05 0.06 q0 0.04 -0.01 0.09 t-0.01 0.09 q0.18 0.04 0.36 0.05 t0.37 0.01 t0.38 0.03 t0.37 0.11 q0.28 0.14 0.48 0.38 t0.31 0.53 t0.1 0.6 t-0.15 0.59 q-0.06 0.14 -0.04 0.31 t0.06 0.33 q0 0.1 0.05 0.17 t0.07 0.17 l0.06 0.96 q-0.04 -0.04 -0.06 -0.08 t-0.06 -0.1 q-0.02 0.12 -0.03 0.2 t-0.01 0.18 l-0.06 0 q-0.02 -0.16 -0.03 -0.33 t-0.01 -0.33 q-0.04 0.26 -0.04 0.53 l0 0.53 t-0.05 0.51 t-0.19 0.49 q0.08 0.02 0.14 0.04 l0.12 0.04 q-0.04 0.04 -0.09 0.05 t-0.07 0.05 q-0.04 0.1 -0.08 0.19 t-0.04 0.19 t0.05 0.18 t0.09 0.2 q0.42 0.02 0.88 0.04 t0.94 0.04 q0.48 0.04 0.97 0.06 t1.05 0.04 q0.06 -0.94 0.11 -1.87 t0.11 -1.89 q0.04 -0.02 0.1 -0.02 z M29.94 5.16 q0.04 0.04 0.09 0.1 t0.11 0.08 q0.48 0.12 0.95 0.24 t0.95 0.2 q0.2 0.04 0.41 -0.04 t0.47 -0.12 l0.34 0.34 q0 -0.12 0.01 -0.19 t0.01 -0.11 q0.04 -0.04 0.12 -0.08 q0.52 0.84 1.02 1.64 t1.02 1.62 q0.04 0.06 0 0.14 t-0.04 0.18 q0 0.08 0.1 0.24 q0.08 0.2 0.16 0.39 t0.16 0.41 q0.04 0.16 0.07 0.3 t0.07 0.28 q0.02 0.04 0.02 0.08 t0.02 0.08 q0.12 0.32 0.23 0.63 t0.25 0.61 q0.16 0.36 0.34 0.7 t0.34 0.7 q0.14 0.32 0.24 0.66 t0.22 0.68 q-0.04 0 -0.12 0.04 q-0.12 -0.08 -0.18 -0.14 q-0.02 0.16 -0.03 0.31 t-0.03 0.33 q0.14 -0.1 0.34 -0.26 q0.24 0.52 0.48 1.02 t0.46 1.02 l-0.12 0.06 q-0.14 -0.32 -0.27 -0.62 t-0.27 -0.6 q-0.02 0 -0.04 0.01 t-0.04 0.01 l0.16 0.6 t0.18 0.58 q-0.22 -0.36 -0.43 -0.72 t-0.47 -0.8 q0.02 0.16 0.02 0.25 t0.04 0.17 q0.1 0.32 0.23 0.63 t0.21 0.65 q0.14 0.44 0.54 0.38 q-0.04 -0.16 -0.07 -0.29 t-0.07 -0.29 q0.2 0.48 0.44 0.94 q-0.04 0 -0.12 0.04 q-0.1 -0.1 -0.14 -0.16 q-0.04 0 -0.05 0.01 t-0.05 0.01 q0.08 0.28 0.15 0.56 t0.15 0.56 q-0.04 0.02 -0.07 0.02 t-0.07 0.02 l0 -0.36 q-0.3 0.22 -0.42 0.3 q0.04 0.24 0.1 0.48 t0.1 0.46 q-0.02 0.02 -0.03 0.02 t-0.03 0.02 q-0.06 -0.08 -0.12 -0.18 t-0.16 -0.26 q-0.02 0.28 -0.03 0.48 t-0.03 0.42 q-0.22 0.1 -0.47 0.18 t-0.55 0.18 l-0.07 0.14 t-0.15 0.32 q-0.12 -0.24 -0.19 -0.39 t-0.13 -0.31 q-0.58 -1.46 -1.15 -2.91 t-1.15 -2.91 q-0.06 -0.16 -0.15 -0.25 t-0.31 -0.07 q-0.74 0.06 -1.48 0.1 t-1.5 0.14 q-0.28 0.02 -0.48 0.19 t-0.24 0.57 q0.1 -0.14 0.18 -0.23 t0.16 -0.19 q0.02 0.02 0.04 0.02 q-0.18 0.52 -0.37 1.03 t-0.39 1.03 q-0.04 0 -0.07 -0.01 t-0.07 -0.01 l0.2 0.2 q-0.12 0.32 -0.22 0.6 t-0.2 0.52 q-0.2 -0.04 -0.37 -0.07 t-0.33 -0.07 q0 0.04 -0.01 0.05 t-0.01 0.05 q0.04 0.02 0.09 0.03 l0.15 0.03 q-0.16 0.28 -0.29 0.53 t-0.27 0.51 q-0.04 0 -0.05 -0.01 t-0.05 -0.01 l0 -0.17 t-0.02 -0.17 q-0.14 0.24 -0.34 0.36 t-0.42 0.19 t-0.46 0.12 t-0.48 0.13 q0.04 -0.08 0.08 -0.13 t0.1 -0.15 q-0.16 0.04 -0.28 0.06 t-0.24 0.06 q-0.34 0.1 -0.39 -0.07 t0.01 -0.37 q0.26 -0.8 0.54 -1.58 t0.54 -1.56 q0.28 -0.86 0.52 -1.71 t0.5 -1.71 q0.22 -0.72 0.49 -1.44 t0.45 -1.46 q0.18 -0.8 0.44 -1.56 t0.3 -1.6 q0.02 -0.44 0.09 -0.92 t0.55 -0.78 l0.1 0 z M32.02 10.58 q-0.04 0 -0.09 0.01 t-0.09 0.01 q-0.22 0.74 -0.46 1.47 t-0.48 1.47 l2.48 0 q-0.36 -0.78 -0.69 -1.51 t-0.67 -1.45 z M30.580000000000002 13.54 q0.04 0.02 0.08 0.03 t0.08 0.03 q0.12 -0.4 0.24 -0.79 t0.24 -0.79 q-0.06 0 -0.18 -0.04 q-0.12 0.4 -0.24 0.78 t-0.22 0.78 z M46.02 15.940000000000001 q-0.02 0.08 -0.02 0.15 t-0.02 0.15 q-0.06 -0.04 -0.12 -0.07 t-0.12 -0.07 q0 0.06 -0.02 0.13 t0 0.13 q0.04 0.16 0.07 0.32 t0.07 0.34 q0.04 -0.12 0.05 -0.21 t0.03 -0.19 q0.32 0.06 0.37 0.31 t-0.21 0.55 q0.14 0.1 0.17 0.22 t0.01 0.25 t-0.04 0.24 t0.04 0.17 q0.14 0.12 0.16 0.27 t0 0.31 t-0.01 0.31 t0.17 0.27 q0.02 -0.1 0.04 -0.17 t0.04 -0.15 q0.04 0.2 0.09 0.39 t0.09 0.39 q0.02 0.08 -0.02 0.28 q-0.02 0.02 -0.09 0.02 t-0.09 -0.04 q-0.06 -0.06 -0.1 -0.3 q-0.1 0.06 -0.17 0.11 t-0.15 0.09 q-0.06 -0.32 -0.12 -0.34 t-0.36 0.14 q-0.06 0.04 -0.15 0.05 t-0.15 -0.03 q-0.22 -0.14 -0.38 -0.06 t-0.3 0.3 q-0.1 -0.4 -0.12 -0.46 l-0.9 0.06 q0.04 -0.08 0.06 -0.1 q-0.14 -0.1 -0.28 -0.21 t-0.32 -0.25 q-0.04 0.22 -0.05 0.36 t-0.03 0.28 l-0.16 0 q-0.04 -0.26 -0.09 -0.51 t-0.07 -0.53 q-0.04 -1.06 -0.07 -2.1 t-0.07 -2.12 q-0.02 -0.32 -0.01 -0.63 t0.01 -0.61 q-0.34 -0.04 -0.4 -0.09 t-0.08 -0.27 q-0.08 0.06 -0.2 0.14 q-0.04 -0.16 -0.09 -0.31 t-0.09 -0.35 q-0.04 0 -0.11 -0.01 l-0.21 -0.03 q0.3 -0.16 0.64 -0.32 q-0.26 -0.08 -0.43 -0.12 t-0.33 -0.08 l0 -0.12 l0.19 0 t0.23 -0.02 q-0.1 -0.1 -0.18 -0.21 t-0.2 -0.25 q0.28 -0.04 0.56 -0.05 t0.56 -0.03 q-0.08 -0.94 -0.15 -1.86 t-0.15 -1.76 q-0.84 -0.28 -1.63 -0.53 t-1.63 -0.51 q0.16 -0.4 0.28 -0.76 q-0.04 -0.08 -0.1 -0.14 q0.92 -0.12 1.84 -0.25 t1.84 -0.25 l0 -0.08 q-0.08 -0.02 -0.16 -0.02 t-0.22 -0.04 q0.06 -0.02 0.08 -0.03 t0.04 -0.01 q0.22 0.04 0.44 -0.03 t0.32 0.15 q0.3 0 0.58 -0.03 t0.54 0.05 q0.22 0.06 0.44 0.15 t0.43 0.18 t0.42 0.16 t0.43 0.05 q0.4 -0.04 0.74 0.07 t0.68 0.17 q1.04 0.16 2.01 0.49 t1.85 0.95 q0.18 0.12 0.34 0.31 t0.34 0.23 q0.3 0.06 0.48 0.21 t0.28 0.37 t0.19 0.44 t0.25 0.44 l0 -0.34 q0.02 0.02 0.06 0.02 l0.04 0 q0 0.14 0.04 0.29 t0.03 0.29 t-0.09 0.27 t-0.28 0.25 q-0.18 0.1 -0.28 0.36 t-0.22 0.48 q-0.14 0.24 -0.28 0.47 t-0.28 0.45 q-0.12 0.16 -0.25 0.33 t-0.27 0.37 q0.58 0.28 1.02 0.66 t0.66 1.04 q0.16 0.44 0.46 0.81 t0.56 0.77 q0.1 0.14 0.17 0.28 t0.17 0.3 q0.2 0.32 0.39 0.63 t0.37 0.63 q0.02 0.04 0.01 0.11 t-0.03 0.13 q-0.06 0.22 -0.01 0.31 t0.31 0.01 q-0.08 -0.12 -0.18 -0.28 q0.1 0.04 0.17 0.05 t0.09 0.05 q0.08 0.14 0.2 0.25 t0.23 0.22 t0.19 0.24 t0.08 0.31 q0.34 0.42 0.68 0.85 t0.68 0.85 q-0.02 0.04 -0.03 0.08 t-0.03 0.08 q-0.14 -0.04 -0.28 -0.07 t-0.32 -0.07 q0 0.04 -0.01 0.13 t-0.01 0.17 q-0.28 0.04 -0.56 0.09 t-0.62 0.11 q-0.02 -0.04 -0.08 -0.11 t-0.12 -0.17 q-0.06 0.04 -0.1 0.07 t-0.08 0.07 q-0.2 -0.16 -0.39 -0.32 t-0.41 -0.34 q-0.04 0.14 -0.08 0.26 t-0.08 0.28 l-0.2 -0.08 t-0.26 -0.1 q-0.1 -0.1 -0.16 -0.25 t-0.13 -0.32 t-0.17 -0.32 t-0.28 -0.27 q-0.1 -0.04 -0.11 -0.2 t-0.07 -0.28 q-0.04 -0.1 -0.11 -0.16 t-0.11 -0.14 q-0.02 -0.06 -0.09 -0.1 t-0.13 -0.08 t-0.07 -0.1 t0.09 -0.18 q0 -0.02 -0.07 -0.1 t-0.13 -0.14 q-0.04 -0.04 -0.11 -0.09 t-0.15 -0.11 q0.04 -0.04 0.03 -0.02 t-0.03 0.02 q-0.24 -0.22 -0.44 -0.49 t-0.48 -0.41 q-0.28 -0.16 -0.33 -0.31 t0.03 -0.37 q-0.14 0.04 -0.29 -0.08 t-0.19 -0.22 q-0.04 -0.12 -0.04 -0.28 t-0.26 -0.16 q-0.1 -0.02 -0.2 -0.18 t-0.2 -0.3 q-0.28 -0.34 -0.54 -0.67 t-0.48 -0.61 l-2.78 0 q0.04 0.54 0.06 1.11 t0.06 1.23 l-0.15 -0.24 t-0.09 -0.14 q-0.02 -0.14 -0.06 -0.27 t-0.02 -0.27 t0.07 -0.27 t0.09 -0.29 l-0.11 0.11 t-0.09 0.11 q-0.04 0.16 -0.08 0.31 t-0.06 0.31 q0 0.06 0.1 0.12 t0.18 0.12 z M46.56 12.219999999999999 q0.16 -0.04 0.3 -0.1 t0.24 -0.02 q0.28 0.12 0.53 0.1 t0.48 -0.13 t0.44 -0.25 t0.41 -0.24 q0.4 -0.2 0.71 -0.6 t0.59 -0.8 q0.16 -0.24 0.26 -0.41 t0.1 -0.31 t-0.1 -0.29 t-0.34 -0.39 q-0.34 -0.32 -0.76 -0.46 t-0.88 -0.24 q-0.52 -0.1 -1.05 -0.24 t-1.11 -0.28 q0.04 1.22 0.09 2.37 t0.09 2.29 z M46.300000000000004 9.6 q-0.02 0 -0.03 -0.01 t-0.05 -0.01 l0 2.7 l0.08 0 l0 -2.68 z M45.56 16.62 l0 -0.46 t-0.02 -0.42 q0 -0.2 -0.01 -0.39 t-0.03 -0.37 l-0.12 0 q0.06 0.2 0.04 0.4 t-0.04 0.41 t0.01 0.42 t0.17 0.41 z M59.78 20.04 q-0.04 -0.1 -0.08 -0.17 t-0.1 -0.17 q-0.02 0.1 -0.12 0.21 t-0.23 0.18 t-0.27 0.12 t-0.26 0.03 q-0.26 -0.04 -0.31 -0.19 t-0.07 -0.37 q-0.02 -0.52 -0.06 -1.04 t0 -1.04 q0.04 -0.84 0.16 -1.68 t0.16 -1.7 q0.04 -0.68 0.01 -1.36 t-0.07 -1.36 q-0.04 -0.58 -0.13 -1.17 t-0.13 -1.17 q-0.04 -0.52 -0.06 -1.04 l-0.04 -1.04 q0 -0.24 0.03 -0.49 t0.07 -0.59 q0.12 0.16 0.19 0.24 t0.17 0.2 q-0.04 -0.42 0.06 -0.6 t0.3 -0.24 t0.46 -0.03 t0.52 0.05 q-0.14 -0.12 -0.21 -0.19 t-0.17 -0.15 l0.32 0 q0.76 0.06 1.5 0.14 t1.5 0.12 q0.52 0.02 1.04 0 t1.02 -0.1 q0.28 -0.04 0.52 -0.07 t0.52 0.05 q0.16 0.04 0.38 -0.09 t0.44 -0.17 q0.32 -0.02 0.63 0.01 t0.61 0.07 q0.08 0 0.14 0.02 t0.14 0 q0.7 -0.12 1.02 0.07 t0.6 0.91 q0.02 0.04 0.02 0.07 t0.02 0.07 q0.1 -0.02 0.17 -0.03 t0.17 -0.03 q0 0.04 0.01 0.05 t0.01 0.03 q-0.12 0.08 -0.28 0.2 q0.22 0.22 0.25 0.27 t-0.07 0.17 q-2.02 0.06 -3.97 0.12 t-3.93 0.12 q0.02 0.46 0.04 0.95 t0.06 1.03 l1.7 0 q0.1 0 0.18 -0.03 t0.16 -0.01 q0.48 0.16 0.96 0.31 t0.96 0.31 q0.02 0.16 0.07 0.22 t0.14 0.06 t0.21 -0.03 t0.24 -0.05 q-0.14 0.1 -0.2 0.15 t-0.1 0.09 l0.3 0.42 l-0.22 0.11 t-0.2 0.09 q0 0.06 0.02 0.1 q0.18 -0.02 0.37 -0.04 t0.41 -0.04 l0.06 0.06 q0.04 0.04 0.07 0.09 t0.09 0.13 q-0.62 0 -1.19 0.01 t-1.13 -0.01 q-0.68 -0.04 -1.36 -0.09 t-1.32 -0.09 l0 2.32 q-0.06 0 -0.12 0.01 t-0.1 0.01 q0.2 0.28 0.23 0.56 t-0.03 0.57 t-0.13 0.57 t-0.07 0.56 l-0.06 -0.24 l-0.08 0 q-0.04 0.42 -0.06 0.85 t-0.06 0.83 l6.82 0 q0.02 0.06 0.02 0.14 q-0.22 0.04 -0.47 0.08 t-0.59 0.1 q0.52 0.06 0.97 0.11 t0.89 0.13 q0.1 0 0.19 0.07 t0.11 0.15 q0.08 0.36 0.13 0.71 t-0.11 0.73 q-0.1 0.24 -0.22 0.35 t-0.4 0.11 q-1.06 0.04 -2.09 0.09 t-2.09 0.11 q-0.76 0.04 -1.5 0.08 t-1.5 0.08 q-0.28 0 -0.55 0.01 t-0.55 -0.01 q-0.32 0 -0.63 -0.07 t-0.63 -0.13 q-0.04 0 -0.11 0.05 t-0.13 0.09 z  M87.88 11.22 q-0.12 0.22 -0.25 0.46 t-0.25 0.46 q0.08 0 0.1 -0.02 q0.04 0.18 0.1 0.36 t0 0.32 q-0.08 0.2 -0.25 0.35 t-0.33 0.31 q-0.02 -0.02 -0.06 -0.04 t-0.1 -0.08 l-0.16 0.32 t-0.18 0.32 l0.12 0.06 q0.06 -0.12 0.14 -0.24 q0.18 0.16 0.28 0.2 q-0.18 0.22 -0.37 0.45 t-0.39 0.47 q-0.02 -0.06 -0.03 -0.13 t-0.03 -0.13 q-0.06 0.1 -0.12 0.19 t-0.12 0.19 q0.04 0.06 0.1 0.12 t0.12 0.14 q-0.08 0.04 -0.1 0.06 t-0.04 0.02 q-0.12 -0.16 -0.21 -0.1 t-0.13 0.16 q-0.1 0.22 -0.17 0.46 t-0.15 0.5 l0.12 -0.08 t0.14 -0.08 q-0.02 0.16 -0.03 0.33 t-0.03 0.39 l0.32 0 q-0.22 0.68 -0.45 1.33 t-0.47 1.33 q-0.02 -0.02 -0.09 -0.04 t-0.17 -0.06 q-0.04 0.12 -0.06 0.24 t-0.06 0.26 q-0.2 -0.04 -0.36 -0.04 q0.04 -0.12 0.08 -0.22 l0.08 -0.2 q-0.02 -0.02 -0.03 -0.02 t-0.03 -0.02 l-0.2 0.4 t-0.22 0.42 q-0.08 -0.12 -0.13 -0.2 t-0.13 -0.18 q-0.12 0.2 -0.23 0.38 t-0.23 0.4 q-0.08 -0.14 -0.12 -0.22 t-0.08 -0.18 q-0.08 0.04 -0.16 0.06 t-0.18 0.06 q0.12 0.16 0.18 0.22 l-0.52 0 q-0.02 -0.06 -0.04 -0.18 t-0.06 -0.3 q-0.16 0.32 -0.28 0.6 t-0.28 0.62 q-0.16 -0.38 -0.3 -0.68 t-0.24 -0.58 q-0.08 -0.18 0.04 -0.36 q0.12 -0.22 0.26 -0.41 t0.24 -0.41 q0.28 -0.7 0.56 -1.42 l0.56 -1.44 l0.32 -0.72 l0.32 -0.72 q0.04 -0.08 0.1 -0.14 t0.1 -0.14 q0.12 -0.28 0.11 -0.51 t-0.1 -0.44 t-0.25 -0.39 t-0.34 -0.36 q-0.4 -0.42 -0.78 -0.86 t-0.78 -0.88 q-0.8 -0.88 -1.6 -1.74 t-1.6 -1.74 q-0.04 -0.04 -0.05 -0.09 t-0.07 -0.15 q0.16 0.12 0.28 0.19 t0.22 0.15 l0.06 -0.06 q-0.12 -0.16 -0.23 -0.3 t-0.25 -0.3 q0.12 0 0.24 0.01 t0.22 -0.03 t0.14 -0.16 t-0.02 -0.4 q0.1 0.12 0.16 0.2 t0.16 0.18 q0.06 -0.16 0.1 -0.31 t0.14 -0.25 q0.08 -0.08 0.21 -0.11 t0.25 -0.05 q0.08 -0.04 0.17 -0.01 t0.15 -0.01 q0.16 -0.06 0.31 -0.16 t0.31 -0.14 q0.34 -0.06 0.63 -0.01 t0.53 0.35 q0.4 0.52 0.84 1.02 t0.9 0.98 q0.36 0.38 0.75 0.73 t0.77 0.73 q0.1 0.1 0.17 0.23 t0.15 0.25 q0.18 -0.28 0.33 -0.52 t0.31 -0.52 l-0.14 0.07 t-0.1 0.07 q-0.02 -0.02 -0.02 -0.03 t-0.02 -0.03 q0.28 -0.16 0.34 -0.44 t0.16 -0.56 q0.2 -0.52 0.38 -1.05 t0.4 -1.05 q0.04 -0.12 0.14 -0.23 t0.2 -0.15 q0.48 -0.08 0.95 -0.13 t0.95 -0.09 q0.04 -0.02 0.09 0.01 t0.07 0.01 q0.38 -0.24 0.67 -0.13 t0.51 0.43 l0.12 -0.08 t0.16 -0.14 q0.04 0.12 0.07 0.22 t0.01 0.18 q-0.14 0.34 -0.28 0.66 t-0.28 0.66 q-0.1 0.22 -0.15 0.43 t-0.15 0.43 q-0.16 0.34 -0.32 0.67 t-0.32 0.67 q-0.28 -0.12 -0.42 -0.14 q-0.04 0.2 -0.06 0.37 t-0.06 0.33 q0.04 0.02 0.09 0.03 t0.09 0.05 q0.02 0.04 0 0.1 t-0.02 0.1 q-0.08 -0.04 -0.16 -0.05 t-0.16 -0.05 q-0.06 0.18 -0.14 0.33 t-0.34 0.05 q-0.12 0.12 -0.23 0.24 t-0.23 0.24 q-0.02 0.1 -0.1 0.3 z M85.06 9.74 l-0.06 0.06 q-0.44 -0.46 -0.88 -0.94 t-0.9 -0.94 l-0.24 0.24 q0.52 0.4 1.04 0.79 t1.04 0.79 z M84.1 17.6 q0.12 0.04 0.14 0.04 q0.22 -0.52 0.43 -1.04 t0.43 -1.04 q-0.02 0 -0.14 -0.04 q-0.22 0.52 -0.43 1.04 t-0.43 1.04 z M87.3 13.76 q0.22 -0.36 0.41 -0.72 t0.41 -0.72 q0.08 0.04 0.14 0.06 q-0.2 0.38 -0.39 0.74 t-0.39 0.74 q-0.04 -0.04 -0.09 -0.05 t-0.09 -0.05 z M87.88 11.22 q0.08 -0.2 0.1 -0.3 q0.1 0.04 0.21 0.08 t0.23 0.08 q-0.06 0.22 -0.2 0.56 q-0.1 -0.1 -0.17 -0.21 t-0.17 -0.21 z M92.84 12.24 q0.1 0.06 0.1 0.1 q0.22 -0.78 0.42 -1.56 t0.5 -1.54 q0.18 -0.46 0.52 -0.85 t0.62 -0.79 q0.1 -0.1 0.18 -0.21 t0.18 -0.19 q0.52 -0.4 1.07 -0.77 t1.07 -0.77 q0.58 -0.44 1.21 -0.45 t1.31 0.05 q0.14 0.02 0.28 -0.01 t0.29 -0.06 t0.29 -0.03 t0.3 0.06 q0.18 0.06 0.41 0.08 t0.57 0.06 q-0.14 0.06 -0.21 0.1 t-0.17 0.08 q0.28 0.1 0.53 0.21 t0.49 0.21 q0 0.02 -0.01 0.03 t-0.01 0.05 q-0.12 0 -0.22 0.01 t-0.14 0.01 q0.46 0.48 1.02 0.94 t0.84 1.06 q0.12 0.26 0.28 0.52 t0.29 0.54 t0.2 0.59 t0.01 0.65 q-0.04 0.2 0.01 0.41 t0.09 0.43 q0.02 0.08 0.09 0.14 t0.13 0.14 q-0.04 0.28 -0.05 0.59 t-0.07 0.63 q-0.1 0.34 -0.21 0.69 t-0.23 0.69 q-0.12 0.38 -0.27 0.74 t-0.19 0.76 q-0.04 0.3 -0.08 0.54 t-0.28 0.46 q-0.1 0.1 -0.21 0.2 t-0.25 0.24 q0.08 0 0.13 -0.01 t0.13 -0.01 q-0.08 0.26 -0.29 0.41 t-0.31 0.33 q-0.16 0.26 -0.4 0.39 t-0.38 0.35 q-0.22 0.32 -0.51 0.39 t-0.57 0.21 q-0.46 0.22 -0.93 0.37 t-0.95 0.31 q-0.16 0.06 -0.33 0.11 t-0.33 0.07 q-0.1 0.02 -0.22 -0.02 t-0.24 -0.02 q-0.2 0 -0.39 0.02 t-0.39 0.06 q-1 0.12 -1.83 -0.24 t-1.59 -0.94 q-0.52 -0.38 -0.92 -0.85 t-0.58 -1.09 q-0.12 -0.46 -0.19 -0.91 t-0.17 -0.91 q-0.04 0 -0.07 -0.01 t-0.05 -0.01 l-0.04 0 q-0.04 -0.18 -0.11 -0.33 t-0.05 -0.27 q0.04 -0.4 0.11 -0.79 t0.15 -0.79 q0.04 -0.1 0.09 -0.22 t0.27 -0.06 q0.04 0.02 0.11 -0.1 t0.15 -0.22 z M103.38000000000001 11.28 q-0.12 -0.38 -0.22 -0.77 t-0.26 -0.75 q-0.44 -0.98 -1.12 -1.7 t-1.76 -1.02 q-0.3 -0.1 -0.62 -0.15 t-0.66 0.35 q-0.58 0.7 -1.13 1.41 t-0.77 1.63 q-0.14 0.52 -0.31 1.03 t-0.3 1.03 t-0.17 1.06 t0.1 1.1 q0.22 0.86 0.55 1.62 t0.97 1.38 q0.26 0.26 0.46 0.4 t0.4 0.18 t0.43 -0.02 t0.57 -0.2 q1.32 -0.58 2.14 -1.54 t1.12 -2.38 q0.14 -0.66 0.28 -1.31 t0.3 -1.35 z M116.16 4.699999999999999 q0.02 0.16 0.04 0.31 t0.06 0.37 q0.04 -0.12 0.05 -0.2 t0.05 -0.14 q0.26 0.44 0.48 0.52 t0.5 -0.2 q0.08 0.24 0.2 0.46 q0.06 -0.08 0.12 -0.14 t0.1 -0.12 l0.12 -0.16 t0.14 -0.18 q0.06 0.24 0.12 0.47 t0.12 0.45 l0.04 0 q0.02 -0.1 0.02 -0.19 t0.02 -0.19 l0.04 0 q0.04 0.34 0.08 0.67 t0.08 0.67 l0.06 0 l0.12 -0.9 l0.14 0 l0 0.74 q0.1 -0.08 0.15 -0.13 l0.09 -0.09 q0.04 0.12 0.1 0.24 t0.1 0.24 q-0.16 0.08 -0.29 0.14 t-0.23 0.1 q0 0.06 -0.01 0.28 t-0.03 0.46 t-0.03 0.44 t-0.01 0.24 q0 0.06 -0.01 0.26 t-0.02 0.44 t-0.02 0.45 t-0.03 0.27 q-0.02 -0.04 -0.04 -0.23 t-0.05 -0.42 t-0.06 -0.44 t-0.07 -0.27 q0.06 0.56 0.09 1.27 t0.02 1.43 t-0.05 1.41 t-0.14 1.21 q-0.22 1.08 -0.55 2.14 t-0.61 2.14 q0.1 -0.04 0.24 -0.09 t0.3 -0.09 q0.02 0.02 0.02 0.03 t0.02 0.03 q-0.28 0.16 -0.53 0.29 t-0.53 0.29 q0 0.02 0.01 0.03 t0.01 0.03 q0.16 -0.04 0.34 -0.07 t0.34 -0.07 q-0.36 0.2 -0.56 0.31 t-0.3 0.12 t-0.14 -0.05 t-0.06 -0.18 l-0.07 0.21 t-0.05 0.13 q-0.34 0.1 -0.66 0.19 t-0.72 0.19 l-0.06 -0.06 q-0.04 -0.04 -0.07 -0.06 t-0.07 -0.06 q-0.02 0.02 -0.04 0.03 t-0.04 0.03 q0.06 0.06 0.12 0.18 q-0.14 0.04 -0.16 0.02 q-0.06 -0.04 -0.2 -0.05 t-0.3 -0.01 t-0.31 0.02 t-0.23 0.04 q-0.4 0.14 -0.72 0.08 q-0.34 -0.04 -0.67 -0.16 t-0.67 -0.12 q-0.26 0 -0.49 -0.07 t-0.47 -0.07 q-0.1 -0.02 -0.2 -0.12 t-0.2 -0.14 q-0.06 -0.02 -0.12 -0.07 t-0.14 -0.07 t-0.14 0.02 t-0.12 0.2 q-0.02 -0.08 -0.04 -0.13 t-0.04 -0.13 q-0.04 0.08 -0.05 0.14 t-0.03 0.1 q-0.18 -0.1 -0.36 -0.21 t-0.36 -0.23 q-0.04 -0.04 -0.08 -0.09 t-0.08 -0.05 q-0.22 -0.02 -0.42 -0.07 t-0.12 -0.41 q-0.24 -0.08 -0.38 -0.25 t-0.22 -0.38 t-0.14 -0.42 t-0.18 -0.39 q-0.04 -0.06 -0.03 -0.17 t-0.03 -0.21 q-0.04 0.08 -0.04 0.14 q-0.04 -0.02 -0.1 -0.03 t-0.06 -0.05 q-0.28 -0.98 -0.47 -1.96 t-0.03 -2.02 q0.08 -0.48 0.13 -1.26 t0.09 -1.63 t0.08 -1.63 t0.1 -1.26 q0.06 -0.4 0.18 -0.84 q0.02 -0.04 0.08 -0.06 l0.12 -0.04 q0.06 -0.04 0.13 -0.04 t0.17 -0.02 q0.04 0.04 0.09 0.13 t0.09 0.13 q0.16 -0.08 0.3 -0.14 l0.28 -0.12 q0.14 -0.04 0.29 -0.07 t0.31 -0.07 q0.1 0.28 0.31 0.27 t0.47 -0.11 q0.12 -0.04 0.26 -0.04 l0.28 0 q-0.04 0.12 -0.08 0.25 t-0.1 0.35 q0.22 -0.1 0.4 -0.18 t0.4 -0.18 q0.26 0.18 0.27 0.5 t-0.01 0.6 q-0.04 0.46 -0.08 1.24 t-0.09 1.61 t-0.09 1.61 t-0.06 1.24 q-0.1 1.14 0.26 2.26 q0.08 0.26 0.19 0.49 t0.23 0.47 q0.16 0.36 0.33 0.72 t0.27 0.74 q0.06 0.24 0.24 0.27 t0.28 0.17 q0.4 0.48 0.99 0.51 t1.05 -0.41 q0.52 -0.5 0.79 -1.14 t0.47 -1.3 q0.16 -0.6 0.33 -1.2 t0.27 -1.22 q0.08 -0.44 0.07 -0.88 t-0.05 -0.9 q-0.04 -0.38 -0.08 -1.06 t-0.09 -1.43 t-0.09 -1.43 t-0.06 -1.06 q-0.04 -0.42 0.01 -0.84 t0.09 -0.84 q0.06 0 0.08 -0.02 z M126.74000000000001 15.940000000000001 q-0.02 0.08 -0.02 0.15 t-0.02 0.15 q-0.06 -0.04 -0.12 -0.07 t-0.12 -0.07 q0 0.06 -0.02 0.13 t0 0.13 q0.04 0.16 0.07 0.32 t0.07 0.34 q0.04 -0.12 0.05 -0.21 t0.03 -0.19 q0.32 0.06 0.37 0.31 t-0.21 0.55 q0.14 0.1 0.17 0.22 t0.01 0.25 t-0.04 0.24 t0.04 0.17 q0.14 0.12 0.16 0.27 t0 0.31 t-0.01 0.31 t0.17 0.27 q0.02 -0.1 0.04 -0.17 t0.04 -0.15 q0.04 0.2 0.09 0.39 t0.09 0.39 q0.02 0.08 -0.02 0.28 q-0.02 0.02 -0.09 0.02 t-0.09 -0.04 q-0.06 -0.06 -0.1 -0.3 q-0.1 0.06 -0.17 0.11 t-0.15 0.09 q-0.06 -0.32 -0.12 -0.34 t-0.36 0.14 q-0.06 0.04 -0.15 0.05 t-0.15 -0.03 q-0.22 -0.14 -0.38 -0.06 t-0.3 0.3 q-0.1 -0.4 -0.12 -0.46 l-0.9 0.06 q0.04 -0.08 0.06 -0.1 q-0.14 -0.1 -0.28 -0.21 t-0.32 -0.25 q-0.04 0.22 -0.05 0.36 t-0.03 0.28 l-0.16 0 q-0.04 -0.26 -0.09 -0.51 t-0.07 -0.53 q-0.04 -1.06 -0.07 -2.1 t-0.07 -2.12 q-0.02 -0.32 -0.01 -0.63 t0.01 -0.61 q-0.34 -0.04 -0.4 -0.09 t-0.08 -0.27 q-0.08 0.06 -0.2 0.14 q-0.04 -0.16 -0.09 -0.31 t-0.09 -0.35 q-0.04 0 -0.11 -0.01 l-0.21 -0.03 q0.3 -0.16 0.64 -0.32 q-0.26 -0.08 -0.43 -0.12 t-0.33 -0.08 l0 -0.12 l0.19 0 t0.23 -0.02 q-0.1 -0.1 -0.18 -0.21 t-0.2 -0.25 q0.28 -0.04 0.56 -0.05 t0.56 -0.03 q-0.08 -0.94 -0.15 -1.86 t-0.15 -1.76 q-0.84 -0.28 -1.63 -0.53 t-1.63 -0.51 q0.16 -0.4 0.28 -0.76 q-0.04 -0.08 -0.1 -0.14 q0.92 -0.12 1.84 -0.25 t1.84 -0.25 l0 -0.08 q-0.08 -0.02 -0.16 -0.02 t-0.22 -0.04 q0.06 -0.02 0.08 -0.03 t0.04 -0.01 q0.22 0.04 0.44 -0.03 t0.32 0.15 q0.3 0 0.58 -0.03 t0.54 0.05 q0.22 0.06 0.44 0.15 t0.43 0.18 t0.42 0.16 t0.43 0.05 q0.4 -0.04 0.74 0.07 t0.68 0.17 q1.04 0.16 2.01 0.49 t1.85 0.95 q0.18 0.12 0.34 0.31 t0.34 0.23 q0.3 0.06 0.48 0.21 t0.28 0.37 t0.19 0.44 t0.25 0.44 l0 -0.34 q0.02 0.02 0.06 0.02 l0.04 0 q0 0.14 0.04 0.29 t0.03 0.29 t-0.09 0.27 t-0.28 0.25 q-0.18 0.1 -0.28 0.36 t-0.22 0.48 q-0.14 0.24 -0.28 0.47 t-0.28 0.45 q-0.12 0.16 -0.25 0.33 t-0.27 0.37 q0.58 0.28 1.02 0.66 t0.66 1.04 q0.16 0.44 0.46 0.81 t0.56 0.77 q0.1 0.14 0.17 0.28 t0.17 0.3 q0.2 0.32 0.39 0.63 t0.37 0.63 q0.02 0.04 0.01 0.11 t-0.03 0.13 q-0.06 0.22 -0.01 0.31 t0.31 0.01 q-0.08 -0.12 -0.18 -0.28 q0.1 0.04 0.17 0.05 t0.09 0.05 q0.08 0.14 0.2 0.25 t0.23 0.22 t0.19 0.24 t0.08 0.31 q0.34 0.42 0.68 0.85 t0.68 0.85 q-0.02 0.04 -0.03 0.08 t-0.03 0.08 q-0.14 -0.04 -0.28 -0.07 t-0.32 -0.07 q0 0.04 -0.01 0.13 t-0.01 0.17 q-0.28 0.04 -0.56 0.09 t-0.62 0.11 q-0.02 -0.04 -0.08 -0.11 t-0.12 -0.17 q-0.06 0.04 -0.1 0.07 t-0.08 0.07 q-0.2 -0.16 -0.39 -0.32 t-0.41 -0.34 q-0.04 0.14 -0.08 0.26 t-0.08 0.28 l-0.2 -0.08 t-0.26 -0.1 q-0.1 -0.1 -0.16 -0.25 t-0.13 -0.32 t-0.17 -0.32 t-0.28 -0.27 q-0.1 -0.04 -0.11 -0.2 t-0.07 -0.28 q-0.04 -0.1 -0.11 -0.16 t-0.11 -0.14 q-0.02 -0.06 -0.09 -0.1 t-0.13 -0.08 t-0.07 -0.1 t0.09 -0.18 q0 -0.02 -0.07 -0.1 t-0.13 -0.14 q-0.04 -0.04 -0.11 -0.09 t-0.15 -0.11 q0.04 -0.04 0.03 -0.02 t-0.03 0.02 q-0.24 -0.22 -0.44 -0.49 t-0.48 -0.41 q-0.28 -0.16 -0.33 -0.31 t0.03 -0.37 q-0.14 0.04 -0.29 -0.08 t-0.19 -0.22 q-0.04 -0.12 -0.04 -0.28 t-0.26 -0.16 q-0.1 -0.02 -0.2 -0.18 t-0.2 -0.3 q-0.28 -0.34 -0.54 -0.67 t-0.48 -0.61 l-2.78 0 q0.04 0.54 0.06 1.11 t0.06 1.23 l-0.15 -0.24 t-0.09 -0.14 q-0.02 -0.14 -0.06 -0.27 t-0.02 -0.27 t0.07 -0.27 t0.09 -0.29 l-0.11 0.11 t-0.09 0.11 q-0.04 0.16 -0.08 0.31 t-0.06 0.31 q0 0.06 0.1 0.12 t0.18 0.12 z M127.28 12.219999999999999 q0.16 -0.04 0.3 -0.1 t0.24 -0.02 q0.28 0.12 0.53 0.1 t0.48 -0.13 t0.44 -0.25 t0.41 -0.24 q0.4 -0.2 0.71 -0.6 t0.59 -0.8 q0.16 -0.24 0.26 -0.41 t0.1 -0.31 t-0.1 -0.29 t-0.34 -0.39 q-0.34 -0.32 -0.76 -0.46 t-0.88 -0.24 q-0.52 -0.1 -1.05 -0.24 t-1.11 -0.28 q0.04 1.22 0.09 2.37 t0.09 2.29 z M127.02000000000001 9.6 q-0.02 0 -0.03 -0.01 t-0.05 -0.01 l0 2.7 l0.08 0 l0 -2.68 z M126.28 16.62 l0 -0.46 t-0.02 -0.42 q0 -0.2 -0.01 -0.39 t-0.03 -0.37 l-0.12 0 q0.06 0.2 0.04 0.4 t-0.04 0.41 t0.01 0.42 t0.17 0.41 z  M154.24 18.98 q0.04 0.06 0.06 0.28 q-0.24 -0.12 -0.4 -0.1 t-0.32 0.24 q-0.06 0.1 -0.28 0.09 t-0.4 0.01 q-0.64 0.08 -1.26 0.17 t-1.26 0.13 q-0.62 0.04 -1.23 0.05 t-1.23 0.05 q-0.22 0.02 -0.43 0.05 t-0.43 0.05 t-0.31 -0.08 t-0.13 -0.32 t-0.1 -0.41 t-0.1 -0.41 q-0.02 -0.22 0 -0.42 t0.02 -0.42 q-0.02 -0.86 -0.04 -1.71 t-0.04 -1.73 q0 -0.22 0.03 -0.46 t0.05 -0.48 q0.04 -0.84 0.07 -1.68 t-0.01 -1.68 q-0.04 -0.96 -0.18 -1.92 t-0.26 -1.92 q0 -0.1 -0.06 -0.19 t-0.08 -0.19 t0.02 -0.18 t0.08 -0.18 q0.08 0.06 0.18 0.11 t0.12 0.11 q0.18 0.94 0.3 1.88 q0.04 0.2 0.03 0.4 t0.03 0.4 q0.02 0.08 0.09 0.14 t0.13 0.14 q0.06 -0.1 0.11 -0.17 t0.05 -0.09 q-0.08 -0.28 -0.14 -0.5 t-0.1 -0.44 q-0.1 -0.44 -0.19 -0.86 t-0.19 -0.84 q-0.04 -0.18 0.14 -0.39 t0.36 -0.23 q0.16 -0.02 0.33 -0.05 t0.43 -0.07 q0.16 0.16 0.36 0.15 t0.42 -0.04 t0.47 -0.05 t0.51 0.1 q0.1 0.88 0.2 1.79 t0.18 1.85 q0.12 1.44 0.12 2.92 q0 0.68 -0.04 1.35 t-0.06 1.35 q-0.04 0.5 0 0.98 q0.04 0.68 0.08 1.37 t0.08 1.41 q0.28 -0.08 0.56 -0.09 t0.56 -0.03 t0.55 -0.09 t0.53 -0.25 q0.1 -0.08 0.3 -0.03 l0.36 0.09 q0.26 0.08 0.51 0.16 t0.51 0.16 q0.1 0.04 0.18 0.08 t0.18 0.08 q0.08 0.06 0.15 0.12 t0.15 0.14 q-0.06 0.06 -0.14 0.13 t-0.18 0.17 z M156.26000000000002 12.24 q0.1 0.06 0.1 0.1 q0.22 -0.78 0.42 -1.56 t0.5 -1.54 q0.18 -0.46 0.52 -0.85 t0.62 -0.79 q0.1 -0.1 0.18 -0.21 t0.18 -0.19 q0.52 -0.4 1.07 -0.77 t1.07 -0.77 q0.58 -0.44 1.21 -0.45 t1.31 0.05 q0.14 0.02 0.28 -0.01 t0.29 -0.06 t0.29 -0.03 t0.3 0.06 q0.18 0.06 0.41 0.08 t0.57 0.06 q-0.14 0.06 -0.21 0.1 t-0.17 0.08 q0.28 0.1 0.53 0.21 t0.49 0.21 q0 0.02 -0.01 0.03 t-0.01 0.05 q-0.12 0 -0.22 0.01 t-0.14 0.01 q0.46 0.48 1.02 0.94 t0.84 1.06 q0.12 0.26 0.28 0.52 t0.29 0.54 t0.2 0.59 t0.01 0.65 q-0.04 0.2 0.01 0.41 t0.09 0.43 q0.02 0.08 0.09 0.14 t0.13 0.14 q-0.04 0.28 -0.05 0.59 t-0.07 0.63 q-0.1 0.34 -0.21 0.69 t-0.23 0.69 q-0.12 0.38 -0.27 0.74 t-0.19 0.76 q-0.04 0.3 -0.08 0.54 t-0.28 0.46 q-0.1 0.1 -0.21 0.2 t-0.25 0.24 q0.08 0 0.13 -0.01 t0.13 -0.01 q-0.08 0.26 -0.29 0.41 t-0.31 0.33 q-0.16 0.26 -0.4 0.39 t-0.38 0.35 q-0.22 0.32 -0.51 0.39 t-0.57 0.21 q-0.46 0.22 -0.93 0.37 t-0.95 0.31 q-0.16 0.06 -0.33 0.11 t-0.33 0.07 q-0.1 0.02 -0.22 -0.02 t-0.24 -0.02 q-0.2 0 -0.39 0.02 t-0.39 0.06 q-1 0.12 -1.83 -0.24 t-1.59 -0.94 q-0.52 -0.38 -0.92 -0.85 t-0.58 -1.09 q-0.12 -0.46 -0.19 -0.91 t-0.17 -0.91 q-0.04 0 -0.07 -0.01 t-0.05 -0.01 l-0.04 0 q-0.04 -0.18 -0.11 -0.33 t-0.05 -0.27 q0.04 -0.4 0.11 -0.79 t0.15 -0.79 q0.04 -0.1 0.09 -0.22 t0.27 -0.06 q0.04 0.02 0.11 -0.1 t0.15 -0.22 z M166.8 11.28 q-0.12 -0.38 -0.22 -0.77 t-0.26 -0.75 q-0.44 -0.98 -1.12 -1.7 t-1.76 -1.02 q-0.3 -0.1 -0.62 -0.15 t-0.66 0.35 q-0.58 0.7 -1.13 1.41 t-0.77 1.63 q-0.14 0.52 -0.31 1.03 t-0.3 1.03 t-0.17 1.06 t0.1 1.1 q0.22 0.86 0.55 1.62 t0.97 1.38 q0.26 0.26 0.46 0.4 t0.4 0.18 t0.43 -0.02 t0.57 -0.2 q1.32 -0.58 2.14 -1.54 t1.12 -2.38 q0.14 -0.66 0.28 -1.31 t0.3 -1.35 z M181.76000000000002 10.5 q-0.1 0.24 -0.16 0.44 q-0.06 0.16 -0.11 0.32 t-0.09 0.34 q-0.1 0.04 -0.27 0.08 t-0.41 0.12 q0.14 0.06 0.23 0.1 t0.19 0.1 q-0.12 0.28 -0.23 0.57 t-0.23 0.59 q0.08 0.04 0.18 0.04 q-0.08 0.12 -0.14 0.16 t-0.13 0.06 t-0.11 0.06 q-0.28 0.42 -0.49 0.88 t-0.19 0.98 q0 0.04 -0.02 0.09 t0.02 0.09 q0.1 0.18 0.1 0.32 t-0.28 0.2 q-0.08 0.02 -0.12 0.12 t-0.1 0.18 q-0.04 0.06 -0.05 0.14 t-0.03 0.16 t-0.07 0.13 t-0.19 0.05 q-0.02 0.04 -0.02 0.1 l0 0.16 q-0.02 0.08 0 0.17 t-0.02 0.13 q-0.14 0.12 -0.18 0.24 t-0.03 0.25 t0.04 0.27 t0.03 0.26 q-0.02 0.04 0.08 0.1 t0.1 0.12 q0.04 0.24 0.06 0.5 t0.06 0.54 q-0.24 -0.04 -0.44 -0.11 t-0.42 0.11 q-0.1 0.1 -0.32 0.02 t-0.42 -0.12 q-0.04 0.04 -0.05 0.11 t-0.05 0.13 q-0.04 -0.04 -0.09 -0.1 t-0.09 -0.1 l-0.09 -0.09 t-0.13 -0.15 q0.02 0.18 0.03 0.3 t0.01 0.22 l-0.1 0 q-0.08 -0.1 -0.14 -0.21 t-0.14 -0.23 q-0.02 0.02 -0.03 0.02 t-0.03 0.02 q0.04 0.14 0.06 0.32 q-0.14 -0.06 -0.3 -0.15 t-0.31 -0.11 t-0.28 0.07 t-0.25 0.39 q-0.1 -0.22 -0.18 -0.43 t-0.14 -0.43 q-0.1 -0.24 -0.15 -0.5 t-0.15 -0.48 q-0.28 -0.58 -0.59 -1.11 t-0.59 -1.11 q-0.34 -0.64 -0.64 -1.27 t-0.6 -1.27 q-0.42 -0.9 -0.83 -1.8 t-0.81 -1.82 q-0.32 -0.72 -0.61 -1.45 t-0.57 -1.47 q-0.06 -0.12 -0.1 -0.24 t-0.04 -0.28 q0.16 0.2 0.31 0.39 t0.31 0.37 q-0.06 -0.5 -0.12 -1.08 q0.04 -0.08 0.15 -0.11 t0.21 -0.05 t0.17 -0.08 t0.03 -0.24 l0.6 -0.08 l0.6 -0.08 q0.06 -0.02 0.12 0.03 t0.1 0.09 q0.32 0.26 0.56 -0.14 q0.22 0.04 0.31 0.14 t0.17 0.32 q0.26 0.7 0.54 1.37 t0.62 1.33 q0.28 0.58 0.5 1.16 l0.44 1.16 q0.26 0.62 0.59 1.2 t0.65 1.18 q0.16 0.3 0.3 0.59 t0.3 0.59 q0.1 0 0.14 0.02 q0.96 -2.3 1.92 -4.59 t1.96 -4.67 q0.1 0.12 0.2 0.23 t0.2 0.21 q0 -0.02 0.1 -0.18 q0.02 0.16 0.08 0.3 q0.08 -0.06 0.14 -0.11 t0.14 -0.11 q0.04 0.12 0.08 0.21 t0.08 0.15 q0.16 0 0.32 -0.02 t0.28 0.04 q0.06 0.04 0.05 0.19 t0.01 0.27 q0.28 0.04 0.68 0.06 q-0.12 0.34 -0.25 0.65 t-0.23 0.65 q-0.06 0.16 -0.09 0.3 t-0.07 0.3 q-0.04 0.08 -0.11 0.13 t-0.11 0.13 q-0.26 0.44 -0.42 0.86 l-0.42 1.08 q-0.02 -0.06 -0.04 -0.11 t-0.06 -0.11 q-0.04 -0.12 -0.08 -0.25 t-0.08 -0.29 q-0.08 0.28 -0.12 0.46 t-0.1 0.34 q-0.04 0.2 -0.11 0.38 t-0.13 0.36 q0.12 0.04 0.16 0.06 q0.06 -0.1 0.12 -0.19 t0.12 -0.19 q0.14 -0.24 0.34 -0.46 z M172.42000000000002 12.379999999999999 q0.04 0 0.06 -0.01 t0.06 -0.01 q-0.26 -0.56 -0.5 -1.11 t-0.5 -1.11 q-0.06 0 -0.1 0.04 q0.1 0.28 0.17 0.56 t0.19 0.56 t0.29 0.54 t0.33 0.54 z M185.84000000000003 20.04 q-0.04 -0.1 -0.08 -0.17 t-0.1 -0.17 q-0.02 0.1 -0.12 0.21 t-0.23 0.18 t-0.27 0.12 t-0.26 0.03 q-0.26 -0.04 -0.31 -0.19 t-0.07 -0.37 q-0.02 -0.52 -0.06 -1.04 t0 -1.04 q0.04 -0.84 0.16 -1.68 t0.16 -1.7 q0.04 -0.68 0.01 -1.36 t-0.07 -1.36 q-0.04 -0.58 -0.13 -1.17 t-0.13 -1.17 q-0.04 -0.52 -0.06 -1.04 l-0.04 -1.04 q0 -0.24 0.03 -0.49 t0.07 -0.59 q0.12 0.16 0.19 0.24 t0.17 0.2 q-0.04 -0.42 0.06 -0.6 t0.3 -0.24 t0.46 -0.03 t0.52 0.05 q-0.14 -0.12 -0.21 -0.19 t-0.17 -0.15 l0.32 0 q0.76 0.06 1.5 0.14 t1.5 0.12 q0.52 0.02 1.04 0 t1.02 -0.1 q0.28 -0.04 0.52 -0.07 t0.52 0.05 q0.16 0.04 0.38 -0.09 t0.44 -0.17 q0.32 -0.02 0.63 0.01 t0.61 0.07 q0.08 0 0.14 0.02 t0.14 0 q0.7 -0.12 1.02 0.07 t0.6 0.91 q0.02 0.04 0.02 0.07 t0.02 0.07 q0.1 -0.02 0.17 -0.03 t0.17 -0.03 q0 0.04 0.01 0.05 t0.01 0.03 q-0.12 0.08 -0.28 0.2 q0.22 0.22 0.25 0.27 t-0.07 0.17 q-2.02 0.06 -3.97 0.12 t-3.93 0.12 q0.02 0.46 0.04 0.95 t0.06 1.03 l1.7 0 q0.1 0 0.18 -0.03 t0.16 -0.01 q0.48 0.16 0.96 0.31 t0.96 0.31 q0.02 0.16 0.07 0.22 t0.14 0.06 t0.21 -0.03 t0.24 -0.05 q-0.14 0.1 -0.2 0.15 t-0.1 0.09 l0.3 0.42 l-0.22 0.11 t-0.2 0.09 q0 0.06 0.02 0.1 q0.18 -0.02 0.37 -0.04 t0.41 -0.04 l0.06 0.06 q0.04 0.04 0.07 0.09 t0.09 0.13 q-0.62 0 -1.19 0.01 t-1.13 -0.01 q-0.68 -0.04 -1.36 -0.09 t-1.32 -0.09 l0 2.32 q-0.06 0 -0.12 0.01 t-0.1 0.01 q0.2 0.28 0.23 0.56 t-0.03 0.57 t-0.13 0.57 t-0.07 0.56 l-0.06 -0.24 l-0.08 0 q-0.04 0.42 -0.06 0.85 t-0.06 0.83 l6.82 0 q0.02 0.06 0.02 0.14 q-0.22 0.04 -0.47 0.08 t-0.59 0.1 q0.52 0.06 0.97 0.11 t0.89 0.13 q0.1 0 0.19 0.07 t0.11 0.15 q0.08 0.36 0.13 0.71 t-0.11 0.73 q-0.1 0.24 -0.22 0.35 t-0.4 0.11 q-1.06 0.04 -2.09 0.09 t-2.09 0.11 q-0.76 0.04 -1.5 0.08 t-1.5 0.08 q-0.28 0 -0.55 0.01 t-0.55 -0.01 q-0.32 0 -0.63 -0.07 t-0.63 -0.13 q-0.04 0 -0.11 0.05 t-0.13 0.09 z"></path></g></svg>